<svg width="150" height="149" viewBox="0 0 150 149" fill="none" xmlns="http://www.w3.org/2000/svg">
<g opacity="0.9">
<path d="M64.9557 0.0942307C63.2852 0.600262 62.2154 2.13522 62.2008 4.07501C62.1861 6.48709 64.0178 8.42688 66.0547 8.157C68.8536 7.76904 70.2018 4.15935 68.5019 1.59546C67.7106 0.414717 66.128 -0.259991 64.9557 0.0942307Z" fill="#620505"/>
<path d="M102.953 4.79971C101.722 5.65996 101.986 7.92024 103.364 8.3588C104.844 8.83109 106.104 7.05998 105.4 5.50815C104.976 4.56356 103.759 4.20934 102.953 4.79971Z" fill="#620505"/>
<path d="M97.4433 6.35145C96.6667 7.22857 96.696 8.40931 97.5166 9.21896C98.8061 10.5178 100.609 9.26956 100.286 7.29604C100.052 5.87915 98.3372 5.32252 97.4433 6.35145Z" fill="#620505"/>
<path d="M74.847 8.12307C72.3705 8.5785 69.7768 9.7761 68.1062 11.2267C67.6666 11.6147 67.2124 11.8846 67.1098 11.834C66.6262 11.6316 64.56 11.0749 63.4903 10.8894C61.7318 10.552 57.365 10.6195 55.5772 10.9737C51.4448 11.834 48.265 13.5207 46.1108 16.0003L45.0851 17.1642L44.411 16.4726C43.1068 15.1569 40.7036 14.1111 38.9451 14.1111C37.8754 14.1111 36.3074 14.5665 35.2084 15.1906C32.5854 16.675 30.8562 19.61 30.6218 22.9667L30.5192 24.3161L29.4934 24.451C27.1341 24.7378 25.1998 25.6655 23.7198 27.2173C22.7673 28.1956 22.6794 28.3981 23.0897 28.5667C24.8042 29.2246 26.2256 30.574 26.929 32.2102C27.1634 32.7668 27.3686 33.3572 27.3686 33.5258C27.3686 34.0319 27.6031 34.0319 28.5556 33.509C29.977 32.7668 31.9113 32.1764 33.7577 31.9571C35.3696 31.7716 36.5859 31.8391 39.1356 32.2776C39.5606 32.3451 39.6778 32.3114 39.6778 32.109C39.6778 31.5692 41.0406 28.8197 41.8466 27.7402C43.6197 25.345 46.2427 23.4896 49.1295 22.5956C50.4337 22.2076 50.8733 22.1401 53.0128 22.1401C55.0936 22.1401 55.6212 22.1907 56.7349 22.5281C59.5631 23.3715 61.7318 24.7715 63.5782 26.9306C64.6772 28.1956 64.7065 28.2294 65.1315 28.027C65.366 27.9089 66.1719 27.6559 66.9339 27.4535C70.612 26.4583 74.9349 26.7619 78.32 28.28C81.1335 29.5282 83.5367 31.7885 84.5625 34.1668C85.2219 35.6849 85.2659 36.1909 84.6504 35.3307C83.4781 33.6777 80.3715 31.6198 77.7191 30.7427C75.4331 29.9836 73.4988 29.7475 70.4508 29.8487C67.5494 29.9499 66.0547 30.2198 63.9006 31.08C61.7904 31.9065 59.7096 33.2897 58.5519 34.6054C57.9218 35.3138 57.8486 35.1789 58.3028 34.1331C59.0941 32.362 60.9845 30.2704 62.6843 29.292L63.3291 28.9041L62.8309 28.4149C59.8708 25.5305 55.5626 24.0462 51.5621 24.5522C49.4226 24.8052 48.1038 25.2607 46.1988 26.3402C43.6637 27.7908 41.8905 29.68 40.601 32.2945C40.0442 33.4246 39.3847 35.6006 39.3847 36.2921C39.3847 36.5283 39.3115 36.7138 39.2235 36.7138C39.121 36.7138 39.1063 36.2415 39.1649 35.2126L39.2675 33.7114L38.2711 33.5764C30.695 32.5644 23.7051 37.1187 22.3716 43.9332C22.1665 45.0465 22.1958 47.5935 22.4449 48.6393C22.5621 49.1285 22.6354 49.5333 22.6061 49.5333C22.5768 49.5333 22.4156 49.1959 22.2544 48.7743C21.1114 45.8055 21.3166 42.1621 22.782 39.244C23.3095 38.2151 25.2731 35.7186 26.0205 35.162C26.3428 34.909 26.3428 34.8921 26.1084 34.0825C25.5955 32.227 24.1448 30.4897 22.5328 29.7812C19.5581 28.4993 16.305 29.9836 14.8835 33.3066C14.5025 34.1837 14.4 34.6391 14.356 35.803C14.312 36.5789 14.3267 37.2199 14.356 37.2199C14.4 37.2199 15.074 37.1018 15.88 36.9669C16.6713 36.8319 17.6678 36.7138 18.0634 36.7307C18.7082 36.7476 18.6056 36.7982 17.1842 37.1355C14.312 37.8102 12.3484 38.9572 10.5753 40.9982C8.50913 43.3766 7.77644 45.9911 8.3919 48.7743C9.27113 52.7044 12.5682 55.7406 17.1109 56.8201C17.8729 57.0057 18.5323 57.1744 18.5617 57.225C18.6056 57.2587 18.1367 57.2587 17.5359 57.2081C14.2681 56.9045 12.0993 56.1117 9.9159 54.4081C8.84617 53.5815 7.42475 51.7936 6.98513 50.714C6.58948 49.7526 6.61879 49.7526 5.16806 50.5791C3.16049 51.743 1.35806 53.6153 0.625373 55.3189C-1.88043 61.2395 3.39495 67.1769 11.9674 68.0878C16.305 68.5432 20.833 67.3793 23.881 65.001C25.1119 64.0564 24.9654 64.4444 23.5 66.0131C21.6976 67.9528 18.9133 69.3866 15.7335 70.0276C15.0154 70.1625 14.356 70.2806 14.2827 70.2806C14.1948 70.2806 14.5025 70.736 14.9861 71.3095C17.4333 74.177 20.6425 75.7795 24.7309 76.218L26.5626 76.4036L27.1048 77.6855C28.3211 80.6036 31.3544 82.982 35.2817 84.0952C36.6884 84.4832 38.6374 84.7868 39.7804 84.7868C40.4984 84.7868 40.5717 84.8205 41.026 85.4784C41.6268 86.3218 43.1068 87.4688 44.3817 88.0423C46.5358 89.0375 49.5985 89.2399 51.9577 88.5652C53.0275 88.2616 54.8006 87.3844 55.5186 86.8109L55.9582 86.4398L57.1598 86.7772C58.9329 87.3001 59.8122 87.4519 61.5999 87.57C63.0067 87.6712 66.128 87.4519 66.3185 87.2326C66.3917 87.1483 66.0987 84.247 65.366 77.9891C64.8824 73.7722 64.7945 73.2662 64.5307 73.1144C64.3549 73.0132 63.5489 72.8951 62.7283 72.8445C60.9552 72.7601 59.5338 73.0806 58.508 73.8397L57.8339 74.3457L57.2624 73.8228C54.654 71.4445 50.0527 70.9384 47.5616 72.7433C46.8289 73.283 46.1402 74.3794 46.0229 75.2397L45.935 75.9313L45.7445 75.4252C45.4807 74.7168 45.4954 74.0252 45.8178 73.2324C46.0669 72.5915 46.8875 71.5963 47.3271 71.4107C47.6935 71.2589 46.272 69.7914 45.1437 69.1673C43.8102 68.4251 42.462 68.0878 40.7622 68.0878C39.5313 68.0878 39.3701 68.054 38.6081 67.5311C38.1538 67.2444 37.7875 66.9408 37.7728 66.8902C37.7728 66.7552 39.077 66.5697 40.0149 66.5697C40.7036 66.5697 40.7036 66.5697 40.7036 65.9962C40.7036 65.1697 40.5131 64.6636 39.883 63.8709C39.5899 63.4998 39.3701 63.1624 39.3994 63.1287C39.4287 63.0949 39.883 62.9769 40.4105 62.8757C42.3741 62.4371 44.3817 61.2732 45.5833 59.8563L46.2867 59.0298L45.6273 58.4057C45.2609 58.0684 44.7773 57.4274 44.5575 56.9888C44.0154 55.9262 43.986 54.2057 44.4989 53.1093C44.8653 52.2996 45.9203 50.8827 46.1695 50.8827C46.2427 50.8827 46.2134 51.0177 46.0962 51.1695C45.217 52.3333 44.9532 54.2225 45.4954 55.6057C45.8617 56.5671 46.9901 57.7816 48.0305 58.3382C49.5838 59.1816 50.551 59.384 52.9395 59.384C54.8885 59.3672 55.2841 59.3166 56.4271 58.9286C57.1305 58.6756 58.1709 58.2033 58.7278 57.8828L59.7389 57.2924L59.0209 56.196C58.0244 54.6779 58.0391 54.4587 59.0941 55.3695C59.7975 55.9768 61.6292 56.9214 62.9041 57.3262C63.9006 57.6298 64.4721 57.6973 66.7874 57.6973C69.176 57.7141 69.6449 57.6635 70.7439 57.3262C73.8505 56.3647 76.0486 54.5599 76.6787 52.4514C76.9571 51.5406 77.1037 52.0803 77.0158 53.6828L76.9425 54.9478L77.4407 55.437C78.1441 56.1623 79.8146 57.09 81.1335 57.4949C82.0127 57.7816 82.6721 57.8491 84.372 57.8491C86.7752 57.8491 87.9768 57.5623 89.7353 56.584C91.0981 55.8418 92.5049 54.2563 92.754 53.1767C93.0031 52.0972 93.2082 52.1984 93.135 53.3623C93.0617 54.4924 92.754 55.3021 92.0506 56.2466L91.5377 56.9382L92.754 57.6129C94.7469 58.7431 95.9338 59.0467 98.5862 59.0467C100.696 59.0467 100.945 59.013 102.001 58.5913C102.616 58.3382 103.393 57.9503 103.715 57.7141C104.184 57.3768 104.301 57.343 104.301 57.5455C104.301 57.6804 104.433 58.1358 104.609 58.5575C105.473 60.666 107.789 62.5552 110.529 63.3648C111.555 63.6684 111.555 63.6684 111.643 64.3094C111.687 64.6805 111.775 65.1697 111.833 65.4058L111.936 65.8444L110.793 65.9456C110.163 65.9962 109.137 66.1986 108.521 66.3841C107.349 66.7384 105.459 67.7167 105.371 68.0034C105.342 68.0878 105.708 68.3071 106.177 68.4589C107.261 68.83 108.17 69.589 108.551 70.4324C108.99 71.4445 108.902 71.5625 108.243 70.871C107.056 69.6396 105.312 69.0492 102.968 69.0661C100.916 69.083 98.6888 69.7746 97.0329 70.8878C96.2269 71.4445 94.8202 72.8951 94.4685 73.5529C94.234 74.0083 94.234 74.0589 94.4978 74.7337C95.04 76.0999 94.7615 77.753 93.7358 79.2373C93.1203 80.1313 92.9884 80.0639 93.4134 79.0687C94.3366 76.9433 93.5013 74.5481 91.4058 73.3168C90.424 72.7433 88.6949 72.3047 87.376 72.3047C86.3209 72.3047 84.709 72.5409 84.5625 72.7095C84.4159 72.8782 82.5549 89.4929 82.6721 89.6278C82.804 89.7965 86.4235 89.2736 87.8303 88.8857L89.4715 88.4471L89.9258 88.8182C90.7024 89.4592 92.4609 90.3026 93.6772 90.623C95.3184 91.0616 98.088 91.0279 99.6706 90.5387C101.444 89.9989 102.894 89.0881 103.979 87.8736C104.858 86.8784 104.961 86.8109 105.605 86.8109C106.778 86.7941 109.43 86.3386 110.807 85.8832C113.255 85.0736 115.907 83.3362 117.153 81.7C117.709 80.9578 118.34 79.7434 118.603 78.9168C118.706 78.5626 118.838 78.3096 118.911 78.3265C119.38 78.4277 122.648 77.9554 123.776 77.618C126.267 76.8421 128.934 75.1385 130.414 73.3674C130.956 72.7095 132.143 70.8203 132.143 70.6179C132.143 70.5505 131.865 70.4155 131.528 70.2974C130.634 69.9938 128.627 68.8974 127.791 68.2565C126.502 67.2444 124.465 64.7311 124.729 64.4275C124.773 64.3769 125.08 64.613 125.417 64.9504C126.165 65.6926 128.495 67.0757 129.799 67.5649C135.06 69.5215 141.449 68.8468 145.815 65.8781C147.164 64.9673 148.82 63.0612 149.347 61.8299C150.578 58.9117 150.065 56.1117 147.838 53.5815C146.636 52.2153 145.698 51.5068 143.91 50.6297C142.313 49.8369 141.991 49.7526 141.874 50.1405C141.17 52.6201 139.236 55.049 136.877 56.4322C135.953 56.972 135.968 56.8708 136.965 56.0105C140.364 53.0755 141.229 48.4032 139.045 44.7597C136.334 40.2055 130.209 38.0127 123.937 39.3452C123.117 39.5139 124.934 38.6874 126.267 38.2825C127.44 37.9283 128.04 37.8608 129.828 37.8271L131.968 37.8102L132.056 37.2199C132.437 34.5379 131.587 31.8391 129.638 29.6125C128.758 28.5836 128.246 28.1619 127.147 27.5378C125.095 26.3739 124.26 26.1715 121.666 26.1715C119.043 26.1715 118.222 26.3739 116.098 27.5884L114.632 28.4318L115.511 27.5041C116.347 26.6101 118.984 24.9064 119.541 24.9064C119.658 24.9064 119.849 24.839 119.951 24.7546C120.245 24.5522 119.732 23.4727 118.721 22.2245C116.698 19.7112 113.284 17.8895 109.137 17.1136C107.701 16.8605 103.964 16.8605 102.469 17.1304C98.7767 17.8051 95.6554 19.3064 93.6625 21.398C92.8859 22.2076 92.8419 22.2413 93.1057 21.7353C93.5306 20.8582 95.3624 18.9521 96.476 18.1931C97.6923 17.3666 99.4654 16.5401 100.814 16.1521C101.356 16.0003 101.81 15.8316 101.81 15.7641C101.81 15.5786 100.652 14.7183 99.5387 14.0774C95.2451 11.6147 89.3982 11.446 84.9288 13.6725C83.3169 14.4822 82.3058 15.2075 81.2068 16.3545C80.6939 16.8943 80.2689 17.2991 80.2689 17.2316C80.2689 16.8774 81.7196 14.6677 82.4084 13.9762C83.3169 13.0822 84.7969 12.0195 85.9839 11.4123C86.4235 11.193 86.8485 10.9568 86.9217 10.8894C87.2588 10.552 83.991 8.89898 81.8955 8.35922C80.2103 7.90379 76.5761 7.78571 74.847 8.12307ZM106.836 28.1956C111.95 29.0896 115.541 32.3788 115.966 36.6295C116.024 37.1187 116.01 37.6753 115.951 37.844C115.878 38.0801 115.79 37.9789 115.585 37.3379C113.606 31.4005 103.481 28.4824 95.9192 31.6535L94.7322 32.1596L95.0839 31.721C95.5968 31.08 97.0182 30.0005 98.0587 29.4607C100.623 28.1113 103.774 27.6559 106.836 28.1956Z" fill="#620505"/>
<path d="M102 10.2318C101.414 10.6366 101.224 11.0414 101.224 11.9185C101.224 13.3186 102.323 14.2125 103.48 13.774C104.872 13.2511 104.975 10.7715 103.642 10.1306C102.967 9.81007 102.557 9.82694 102 10.2318Z" fill="#620505"/>
<path d="M23.4122 15.157C22.6795 15.4437 21.4632 16.9112 21.2434 17.7546C20.9796 18.8173 21.0382 19.8294 21.4192 20.7739C22.489 23.4222 25.537 23.9282 27.2368 21.7523C27.9255 20.8752 28.1454 20.0655 28.0721 18.7498C27.9549 16.6414 26.6653 15.1401 24.8482 15.0221C24.3354 14.9883 23.6906 15.0558 23.4122 15.157Z" fill="#620505"/>
<path d="M121.49 18.159C120.406 18.9181 120.26 20.6554 121.197 21.6506C122.179 22.6627 123.454 22.4771 124.187 21.2121C125.315 19.2554 123.249 16.9108 121.49 18.159Z" fill="#620505"/>
<path d="M7.29265 31.8556C6.14965 32.7496 5.79796 34.2508 6.42807 35.5328C7.26334 37.2533 9.13903 37.4894 10.2967 36.0219C11.3664 34.6556 11.044 32.5809 9.62261 31.7375C8.99249 31.3496 7.86415 31.417 7.29265 31.8556Z" fill="#620505"/>
<path d="M140.57 35.0103C138.211 36.2416 138.518 40.1212 141.024 40.7622C142.929 41.2513 144.658 39.2103 144.16 37.0681C143.867 35.7862 142.68 34.6898 141.596 34.6898C141.361 34.6898 140.892 34.8416 140.57 35.0103Z" fill="#620505"/>
<path d="M75.5798 56.7861C74.4661 58.0681 73.0447 58.9621 71.2423 59.5018C69.7476 59.9573 66.9048 60.1091 65.3954 59.8392C64.78 59.7211 64.2378 59.6705 64.1938 59.7043C64.1498 59.7549 64.4869 62.3694 64.9411 65.5068C67.0659 80.2829 68.3701 93.2879 68.9856 105.77C69.0589 107.423 69.1321 109.498 69.1321 110.358C69.1321 111.724 69.1614 111.96 69.3959 112.045C69.5278 112.095 69.8941 112.264 70.1872 112.399C70.7001 112.652 70.7587 112.635 71.5647 112.18C72.2827 111.775 72.5904 111.707 73.6016 111.707C74.5834 111.707 74.9351 111.792 75.5359 112.129L76.2686 112.534L77.1038 112.163C77.5581 111.944 78.4373 111.674 79.0381 111.572L80.1225 111.37V110.105C80.1225 105.365 81.0164 92.8324 82.0422 83.4371C82.8042 76.3696 84.841 61.0031 85.1927 59.6031C85.266 59.35 85.1488 59.3163 84.123 59.3163C83.4929 59.3163 82.5257 59.1982 81.9542 59.0633C81.3974 58.9283 80.8845 58.8103 80.8405 58.8103C80.7966 58.8103 80.6794 59.5525 80.5914 60.4464C80.5035 61.3573 80.2544 63.6513 80.0492 65.5574C79.7562 68.408 79.2872 73.5864 78.7157 80.1817C78.6278 81.2275 78.6278 81.2443 78.1882 81.2443H77.7339L77.8365 80.013C78.2322 75.037 78.9209 67.5477 79.3752 63.3983L79.9027 58.4561L78.9209 57.8488C78.3787 57.5283 77.6167 56.9042 77.2357 56.4657L76.5323 55.6897L75.5798 56.7861Z" fill="#620505"/>
<path d="M55.7238 62.4373C54.9765 62.7409 54.2585 63.6686 54.0533 64.6301C53.4232 67.5313 56.4565 69.7242 58.4495 67.8012C60.0467 66.2494 59.6218 63.3819 57.6728 62.4373C57.0134 62.1337 56.5005 62.1168 55.7238 62.4373Z" fill="#620505"/>
<path d="M47.9427 62.5892C47.6936 62.7072 47.3419 63.0446 47.166 63.2976C46.7118 63.9555 46.785 65.3555 47.2979 65.9796C48.2944 67.1941 50.1994 66.57 50.4632 64.9507C50.7269 63.2976 49.2615 61.8976 47.9427 62.5892Z" fill="#620505"/>
<path d="M10.2822 72.2032C9.72539 72.8442 9.62282 73.6538 10.0038 74.4803C10.2676 75.1044 11.1175 75.5599 11.7037 75.4249C13.7259 74.902 13.5061 71.6297 11.4399 71.6297C10.883 71.6297 10.7072 71.714 10.2822 72.2032Z" fill="#620505"/>
<path d="M133.169 72.406C132.363 73.0638 132.114 73.9578 132.495 74.8687C132.92 75.8976 133.902 76.2856 134.781 75.7627C135.748 75.1892 135.983 73.7385 135.25 72.7939C134.737 72.1361 133.741 71.9506 133.169 72.406Z" fill="#620505"/>
<path d="M22.7088 78.8155C21.0676 80.1312 22.5183 83.1674 24.3207 82.189C25.9326 81.3119 25.4344 78.5456 23.6613 78.5456C23.3243 78.5456 22.8847 78.6637 22.7088 78.8155Z" fill="#620505"/>
<path d="M120.42 80.114C119.864 80.4345 119.483 81.3791 119.6 82.1213C119.996 84.6009 123.161 84.0105 122.868 81.5141C122.706 80.1984 121.49 79.4899 120.42 80.114Z" fill="#620505"/>
<path d="M61.8494 102.936C61.6296 103.341 61.6296 103.425 61.8201 103.83C61.9666 104.134 62.1718 104.285 62.4795 104.319C63.007 104.387 63.3148 104.049 63.3148 103.391C63.3148 102.497 62.289 102.177 61.8494 102.936Z" fill="#620505"/>
<path d="M86.6726 102.801C86.3502 103.206 86.3648 103.729 86.6872 104.066C87.2294 104.64 88.0354 104.252 88.0354 103.425C88.0354 102.582 87.1562 102.194 86.6726 102.801Z" fill="#620505"/>
<path d="M55.533 103.78C54.9029 104.286 55.2252 105.365 55.9872 105.365C56.5734 105.365 56.8225 105.112 56.8225 104.505C56.8225 104.05 56.3829 103.51 56.0165 103.51C55.9286 103.51 55.7088 103.628 55.533 103.78Z" fill="#620505"/>
<path d="M64.9554 104.775C64.3986 104.893 63.6366 105.129 63.2703 105.281C62.7134 105.517 62.4936 105.534 61.7756 105.348C59.9878 104.927 57.8044 105.399 56.9105 106.428L56.5588 106.833L55.6942 106.512C53.716 105.736 51.2541 106.714 50.6533 108.519C50.5507 108.857 50.4188 108.907 49.818 108.907C46.5356 108.907 44.6452 112.416 46.6821 114.744C47.2243 115.368 48.2354 115.941 49.0414 116.093L49.6422 116.211V115.553C49.6422 114.727 50.3309 113.293 50.9903 112.736C51.7523 112.095 51.9428 112.028 51.5179 112.551C49.8034 114.676 50.3895 117.51 52.8367 118.893C53.7599 119.416 53.8918 119.45 55.4451 119.45C56.3536 119.45 57.145 119.399 57.2036 119.332C57.2622 119.264 57.1156 118.876 56.8958 118.488C56.4416 117.695 56.2804 116.565 56.4709 115.536C56.5881 114.912 56.5881 114.929 56.676 116.025C56.7933 117.358 57.2329 118.252 58.1707 119.028C58.9034 119.652 60.4128 120.209 61.3359 120.209C61.9514 120.209 61.9807 120.192 61.7756 119.905C61.4532 119.483 61.0722 118.589 61.0722 118.235C61.0722 118.016 61.1454 118.066 61.3359 118.438C61.6583 119.028 62.5229 119.939 63.0944 120.259C63.7538 120.647 64.9848 121.069 65.8493 121.204L66.6553 121.339L66.245 120.833L65.8347 120.344L66.7286 120.866C68.106 121.676 69.3809 121.963 71.4764 121.963C73.7331 121.963 75.3157 121.524 76.5759 120.529C77.4991 119.821 77.7775 119.399 77.9241 118.522L78.0267 117.932L78.2172 118.438C78.3637 118.859 78.3637 119.062 78.1732 119.703C78.0413 120.107 77.9534 120.479 77.9827 120.495C78.0999 120.647 79.7118 120.883 80.5618 120.883C82.4668 120.883 84.3278 120.276 85.4855 119.264C86.1009 118.707 86.1302 118.707 86.0423 119.095C85.969 119.45 86.0423 119.517 86.6724 119.77C89.2368 120.799 92.2848 119.77 93.3106 117.527C93.5304 117.054 93.589 117.004 93.6037 117.274C93.6037 117.476 93.4425 117.982 93.252 118.404L92.8856 119.18L93.3399 119.348C94.0286 119.635 95.9336 119.568 96.7689 119.247C98.6592 118.522 99.7583 117.038 99.7583 115.233C99.7583 114.271 99.4945 113.546 98.8644 112.686L98.3662 112.028L98.8058 112.348C99.9341 113.158 100.638 114.389 100.638 115.553V116.211L101.268 116.093C101.605 116.042 102.249 115.772 102.689 115.519C104.257 114.625 104.872 112.736 104.154 111.1C103.598 109.852 102.044 108.907 100.55 108.907C99.5385 108.907 98.9377 108.57 98.8058 107.929C98.6885 107.288 98.1024 106.664 97.1939 106.175C96.5784 105.854 96.2267 105.787 94.9225 105.804C93.9261 105.804 93.1787 105.905 92.7977 106.074C92.2555 106.31 92.1676 106.293 91.5521 105.972C91.0393 105.719 90.541 105.618 89.3834 105.601C88.3429 105.567 87.6103 105.449 86.9655 105.213C85.7346 104.758 84.4011 104.522 82.8771 104.522H81.6022L81.5289 105.399C81.485 105.888 81.4263 107.069 81.3824 108.013L81.3238 109.751H82.6573C83.4046 109.751 84.4304 109.666 84.9433 109.565C85.8371 109.413 85.9544 109.43 86.775 109.852C87.8447 110.409 89.5446 110.577 90.7901 110.257C91.6107 110.054 91.7133 110.054 94.8492 110.712C95.4207 110.83 95.4061 110.83 94.4829 110.931C93.3985 111.049 92.5632 111.336 91.8892 111.809C91.4349 112.112 91.3909 112.112 90.7169 111.842C89.8523 111.488 87.9033 111.454 87.0827 111.758C86.7603 111.876 86.2181 112.163 85.8811 112.382L85.2656 112.804L85.8225 113.394C86.4086 114.001 86.8629 114.878 86.8629 115.435C86.8629 115.654 86.7896 115.587 86.6284 115.233C85.9104 113.647 83.9615 112.517 81.3677 112.196C80.3859 112.078 78.6714 112.315 77.5138 112.736C76.7664 113.006 76.7371 113.04 76.8397 113.529L76.9276 114.052L76.444 113.512C75.7553 112.77 74.8321 112.416 73.5279 112.399C72.3703 112.382 71.5204 112.618 70.8609 113.141C70.6558 113.327 70.4506 113.394 70.4213 113.293C70.3481 113.04 68.4577 112.618 67.3294 112.618C66.0398 112.618 64.2814 113.04 63.3582 113.58L62.6108 114.001L62.9772 113.546C63.1823 113.293 63.6073 112.939 63.9297 112.753L64.5012 112.416L63.9883 112.112C62.816 111.404 60.9403 111.319 59.5482 111.893C58.9913 112.112 58.9181 112.095 58.1121 111.657C57.6432 111.387 57.2622 111.134 57.2622 111.083C57.2622 111.016 57.3794 110.796 57.5406 110.577C57.8044 110.206 57.819 110.206 59.0793 110.409C60.5593 110.662 61.3653 110.56 62.6548 109.97C63.6806 109.498 64.3839 109.447 66.5087 109.666L67.9155 109.801L67.8569 108.047C67.8276 107.086 67.769 105.888 67.725 105.399L67.6517 104.522L66.8165 104.539C66.3622 104.539 65.5269 104.657 64.9554 104.775Z" fill="#620505"/>
<path d="M100.242 105.72C99.8903 105.872 99.6705 106.53 99.817 106.968C99.861 107.103 100.066 107.306 100.257 107.424C100.55 107.576 100.696 107.559 101.004 107.322C101.839 106.698 101.195 105.315 100.242 105.72Z" fill="#620505"/>
<path d="M104.653 108.317C104.345 108.857 104.55 109.481 105.093 109.785C105.898 110.19 106.602 108.891 105.972 108.166C105.605 107.744 104.931 107.828 104.653 108.317Z" fill="#620505"/>
<path d="M42.0075 111.286C41.5972 111.758 41.6851 112.568 42.1833 113.006C42.8134 113.546 43.6341 113.04 43.6341 112.095C43.6341 111.083 42.6229 110.577 42.0075 111.286Z" fill="#620505"/>
<path d="M107.466 111.472C106.968 112.281 107.364 113.293 108.155 113.293C108.712 113.293 108.888 113.175 109.122 112.652C109.459 111.91 108.976 111.101 108.184 111.101C107.833 111.101 107.613 111.219 107.466 111.472Z" fill="#620505"/>
<path d="M104.696 114.44C104.213 115.064 104.491 116.194 105.18 116.346C105.678 116.464 106.206 116.16 106.308 115.688C106.44 115.115 106.382 114.811 106.103 114.423C105.796 114.035 105.004 114.052 104.696 114.44Z" fill="#620505"/>
<path d="M47.3858 118.556C47.2539 118.758 47.1514 119.113 47.1514 119.315C47.1514 120.209 48.2944 120.732 48.8072 120.074C49.1296 119.652 49.115 118.809 48.7926 118.472C48.3969 118.05 47.6496 118.101 47.3858 118.556Z" fill="#620505"/>
<path d="M57.2182 121.727C56.7199 122.182 56.5881 122.908 56.8811 123.566C57.3354 124.578 58.3319 124.746 59.0352 123.937C59.5774 123.313 59.5921 122.604 59.0792 121.913C58.6103 121.272 57.8043 121.187 57.2182 121.727Z" fill="#620505"/>
<path d="M90.7169 121.795C90.3946 122.115 90.3066 122.334 90.3066 122.908C90.3066 124.814 92.6952 124.966 92.959 123.06C93.0323 122.587 92.9736 122.368 92.6513 121.929C92.153 121.238 91.3471 121.187 90.7169 121.795Z" fill="#620505"/>
<path d="M84.108 122.604C84.0054 122.722 83.9321 123.009 83.9321 123.245C83.9321 123.818 84.1812 124.088 84.6941 124.088C84.9579 124.088 85.1777 123.953 85.3389 123.667C85.5587 123.279 85.5587 123.211 85.3389 122.823C85.0751 122.368 84.4157 122.25 84.108 122.604Z" fill="#620505"/>
<path d="M65.5126 123.363C65.0437 123.464 64.4429 124.358 64.4429 124.949C64.4429 125.961 65.1023 126.787 65.9083 126.787C67.1538 126.787 67.8279 124.982 66.978 123.936C66.553 123.43 66.0841 123.245 65.5126 123.363Z" fill="#620505"/>
<path d="M81.9687 124.19C81.6463 124.544 81.6756 125.034 82.0419 125.455C82.3643 125.826 82.8479 125.776 83.1703 125.303C83.5659 124.713 83.1996 123.92 82.5402 123.92C82.3497 123.92 82.0859 124.038 81.9687 124.19Z" fill="#620505"/>
<path d="M84.0791 126.112C83.7127 126.534 83.6981 126.99 84.0498 127.344C84.4015 127.715 84.8557 127.698 85.1488 127.327C85.4859 126.888 85.4566 126.349 85.0756 126.045C84.6359 125.691 84.4308 125.708 84.0791 126.112Z" fill="#620505"/>
<path d="M51.0935 137.701C49.5842 138.78 50.2436 141.479 52.0167 141.462C53.7752 141.429 54.3906 138.73 52.8666 137.684C52.3391 137.347 51.5917 137.347 51.0935 137.701Z" fill="#620505"/>
<path d="M99.4359 137.667C98.6446 138.173 98.3662 139.472 98.8058 140.45C99.3187 141.597 100.784 141.783 101.546 140.804C102.264 139.877 102.264 138.999 101.546 138.072C101.048 137.431 100.081 137.245 99.4359 137.667Z" fill="#620505"/>
<path d="M29.64 146.438C28.8926 147.282 29.3908 148.715 30.4313 148.715C31.12 148.715 31.6182 148.159 31.6182 147.383C31.6182 146.674 31.0614 146.016 30.4459 146.016C30.1675 146.016 29.8598 146.168 29.64 146.438Z" fill="#620505"/>
<path d="M120.2 146.438C119.453 147.282 119.981 148.715 121.05 148.715C122.076 148.715 122.56 147.282 121.812 146.438C121.593 146.168 121.285 146.016 121.006 146.016C120.728 146.016 120.42 146.168 120.2 146.438Z" fill="#620505"/>
</g>
</svg>
